<mxfile host="app.diagrams.net" agent="Mozilla/5.0 (Windows NT 10.0; Win64; x64) AppleWebKit/537.36 (KHTML, like Gecko) Chrome/135.0.0.0 Safari/537.36 Edg/135.0.0.0" version="26.2.12">
  <diagram name="Page-1" id="9f46799a-70d6-7492-0946-bef42562c5a5">
    <mxGraphModel dx="1155" dy="587" grid="1" gridSize="10" guides="1" tooltips="1" connect="1" arrows="1" fold="1" page="1" pageScale="1" pageWidth="1100" pageHeight="850" background="none" math="0" shadow="0">
      <root>
        <mxCell id="0" />
        <mxCell id="1" parent="0" />
        <mxCell id="mxJRIPIZ18_nRCI6DvnW-1" value="User Login/User Home" style="rounded=0;whiteSpace=wrap;html=1;fontSize=20;" vertex="1" parent="1">
          <mxGeometry x="380" y="30" width="240" height="70" as="geometry" />
        </mxCell>
        <mxCell id="mxJRIPIZ18_nRCI6DvnW-2" value="User settings/User Profile" style="rounded=0;whiteSpace=wrap;html=1;fontSize=20;" vertex="1" parent="1">
          <mxGeometry x="170" y="220" width="230" height="70" as="geometry" />
        </mxCell>
        <mxCell id="mxJRIPIZ18_nRCI6DvnW-3" value="Health Metric Logging" style="rounded=0;whiteSpace=wrap;html=1;fontSize=20;" vertex="1" parent="1">
          <mxGeometry x="570" y="220" width="250" height="70" as="geometry" />
        </mxCell>
        <mxCell id="mxJRIPIZ18_nRCI6DvnW-4" value="Calorie Tracker" style="rounded=0;whiteSpace=wrap;html=1;fontSize=20;" vertex="1" parent="1">
          <mxGeometry x="575" y="420" width="240" height="70" as="geometry" />
        </mxCell>
        <mxCell id="mxJRIPIZ18_nRCI6DvnW-5" value="" style="endArrow=ERmany;html=1;rounded=0;entryX=0.5;entryY=1;entryDx=0;entryDy=0;exitX=0.5;exitY=0;exitDx=0;exitDy=0;startArrow=none;startFill=0;endFill=0;endSize=23;" edge="1" parent="1" source="mxJRIPIZ18_nRCI6DvnW-4" target="mxJRIPIZ18_nRCI6DvnW-3">
          <mxGeometry width="50" height="50" relative="1" as="geometry">
            <mxPoint x="520" y="560" as="sourcePoint" />
            <mxPoint x="570" y="510" as="targetPoint" />
          </mxGeometry>
        </mxCell>
        <mxCell id="mxJRIPIZ18_nRCI6DvnW-6" value="Total calories eaten and lost" style="text;html=1;align=center;verticalAlign=middle;whiteSpace=wrap;rounded=0;fontSize=20;" vertex="1" parent="1">
          <mxGeometry x="700" y="350" width="250" height="30" as="geometry" />
        </mxCell>
        <mxCell id="mxJRIPIZ18_nRCI6DvnW-7" value="" style="endArrow=none;html=1;rounded=0;entryX=0;entryY=1;entryDx=0;entryDy=0;exitX=0.5;exitY=0;exitDx=0;exitDy=0;" edge="1" parent="1" source="mxJRIPIZ18_nRCI6DvnW-2" target="mxJRIPIZ18_nRCI6DvnW-1">
          <mxGeometry width="50" height="50" relative="1" as="geometry">
            <mxPoint x="290" y="190" as="sourcePoint" />
            <mxPoint x="340" y="140" as="targetPoint" />
          </mxGeometry>
        </mxCell>
        <mxCell id="mxJRIPIZ18_nRCI6DvnW-8" value="" style="endArrow=none;html=1;rounded=0;entryX=1;entryY=1;entryDx=0;entryDy=0;exitX=0.5;exitY=0;exitDx=0;exitDy=0;" edge="1" parent="1" source="mxJRIPIZ18_nRCI6DvnW-3" target="mxJRIPIZ18_nRCI6DvnW-1">
          <mxGeometry width="50" height="50" relative="1" as="geometry">
            <mxPoint x="660" y="190" as="sourcePoint" />
            <mxPoint x="710" y="140" as="targetPoint" />
          </mxGeometry>
        </mxCell>
        <mxCell id="mxJRIPIZ18_nRCI6DvnW-9" value="Drop Down Menu" style="text;html=1;align=center;verticalAlign=middle;whiteSpace=wrap;rounded=0;fontSize=20;" vertex="1" parent="1">
          <mxGeometry x="160" y="130" width="160" height="30" as="geometry" />
        </mxCell>
        <mxCell id="mxJRIPIZ18_nRCI6DvnW-10" value="" style="endArrow=none;html=1;rounded=0;exitX=1;exitY=0;exitDx=0;exitDy=0;entryX=0.5;entryY=1;entryDx=0;entryDy=0;startArrow=ERzeroToMany;startFill=0;startSize=15;" edge="1" parent="1" source="mxJRIPIZ18_nRCI6DvnW-2" target="mxJRIPIZ18_nRCI6DvnW-1">
          <mxGeometry width="50" height="50" relative="1" as="geometry">
            <mxPoint x="520" y="250" as="sourcePoint" />
            <mxPoint x="570" y="200" as="targetPoint" />
          </mxGeometry>
        </mxCell>
        <mxCell id="mxJRIPIZ18_nRCI6DvnW-11" value="" style="endArrow=none;html=1;rounded=0;exitX=1;exitY=0.5;exitDx=0;exitDy=0;entryX=0;entryY=0.5;entryDx=0;entryDy=0;startArrow=ERzeroToMany;startFill=0;startSize=15;" edge="1" parent="1" source="mxJRIPIZ18_nRCI6DvnW-2" target="mxJRIPIZ18_nRCI6DvnW-3">
          <mxGeometry width="50" height="50" relative="1" as="geometry">
            <mxPoint x="520" y="250" as="sourcePoint" />
            <mxPoint x="570" y="200" as="targetPoint" />
          </mxGeometry>
        </mxCell>
        <mxCell id="mxJRIPIZ18_nRCI6DvnW-12" value="" style="endArrow=none;html=1;rounded=0;exitX=1;exitY=1;exitDx=0;exitDy=0;entryX=0;entryY=0.5;entryDx=0;entryDy=0;endFill=0;startFill=0;startArrow=ERzeroToMany;targetPerimeterSpacing=0;startSize=15;" edge="1" parent="1" source="mxJRIPIZ18_nRCI6DvnW-2" target="mxJRIPIZ18_nRCI6DvnW-4">
          <mxGeometry width="50" height="50" relative="1" as="geometry">
            <mxPoint x="520" y="250" as="sourcePoint" />
            <mxPoint x="570" y="200" as="targetPoint" />
          </mxGeometry>
        </mxCell>
        <mxCell id="mxJRIPIZ18_nRCI6DvnW-13" value="Drop Down Menu" style="text;html=1;align=center;verticalAlign=middle;whiteSpace=wrap;rounded=0;fontSize=20;" vertex="1" parent="1">
          <mxGeometry x="655" y="120" width="160" height="30" as="geometry" />
        </mxCell>
        <mxCell id="mxJRIPIZ18_nRCI6DvnW-14" value="Custom settings" style="text;html=1;align=center;verticalAlign=middle;whiteSpace=wrap;rounded=0;fontSize=20;" vertex="1" parent="1">
          <mxGeometry x="405" y="270" width="170" height="30" as="geometry" />
        </mxCell>
        <mxCell id="mxJRIPIZ18_nRCI6DvnW-15" value="Custom settings" style="text;html=1;align=center;verticalAlign=middle;whiteSpace=wrap;rounded=0;fontSize=20;" vertex="1" parent="1">
          <mxGeometry x="350" y="395" width="170" height="30" as="geometry" />
        </mxCell>
        <mxCell id="mxJRIPIZ18_nRCI6DvnW-17" value="Custom settings" style="text;html=1;align=center;verticalAlign=middle;whiteSpace=wrap;rounded=0;fontSize=20;" vertex="1" parent="1">
          <mxGeometry x="450" y="140" width="170" height="30" as="geometry" />
        </mxCell>
      </root>
    </mxGraphModel>
  </diagram>
</mxfile>
